<html>
<head>
<meta charset="UTF-8">
<meta name="viewport" content="width=device-width, initial-scale=1.0"/>

<style>
.comment
{
    padding-left: 20px;
    margin-top: 4px;
    margin-right: 4px;
    margin-bottom: 4px;
    border: 2px #000 solid;
}
.submission
{
    border: 4px #00f solid;
    padding-left: 20px;
}
.hidden
{
    display: none;
}
</style>
</head>
<body><div class="submission" id="t3_7rtq34">
    <p class="userinfo">
        <a href="https://www.reddit.com/u/Ed_ButteredToast">Ed_ButteredToast</a>
        <span class="score"> | 11 points</span>
        <span class="timestamp"> | Jan 20 2018 22:43:55</span>
    </p>
    <strong>[MUSIC] Taylor Swift - 'reputation' (2017) Album [FLAC] [16bit 44.1kHz 2CH] [MP3 320kbps] [382 MB/130 MB]</strong>
    <p><h6>https://itunes.apple.com/ca/album/reputation/1274999981</h6>
<h1><strong><a href="http://links.snahp.it/770_">LINK HERE</a></strong></h1>
<h2>---</h2>
<p><strong>Note</strong>: <em>Password to the Snahp.it link</em> <strong><em>and</em></strong> <em>the rar files is the same and is the name of the artist</em> <strong><em>"swift"</em></strong> <em>spelled backwards e.g WEBSITE = ETISBEW. Also when you access the MEGA link, replace "xxxx" with "mega". There are 2 folders, one for FLAC with 2 rar files and one for MP3 with 2 rar files. Use the password (same for all parts) and extracting part 1 will automatically extract the other part too and in the end you'll be left with 15 FLAC files, 15 MP3 files.</em></p>
<h1><strong>Link Encoded in Base64</strong></h1>
<p>1= <code>aHR0cHM6Ly94eHh4Lm56LyNGIXJjZHl3SWhD</code></p>
<p>2= <code>IW1zU2YybGo5bzJpYjJidnM3OEJHT2c</code></p>
<p><strong>How to decode?</strong></p>
<p><em>Go to https://www.base64decode.org and paste 1 and 2 (without any space) where it says "Type or (paste) here..." and click decode. You'll receive a link in the lower box. In that link, replace xxxx with MEGA.</em></p>
<h2>---</h2>
<h2>---</h2>
<h2>---</h2>
<h2>---</h2>
<h2>---</h2>
<h1><code>General</code></h1>
<p><code>Complete name                  : 02 - Taylor Swift - End Game.flac</code></p>
<p><code>Format                         : FLAC</code></p>
<p><code>Format/Info                    : Free Lossless Audio Codec</code></p>
<p><code>File size                      : 31.2 MiB</code></p>
<p><code>Duration                       : 4mn 4s</code></p>
<p><code>Overall bit rate mode          : Variable</code></p>
<p><code>Overall bit rate               : 1 069 Kbps</code></p>
<p><code>Album                          : reputation</code></p>
<p><code>Part                           : 1</code></p>
<p><code>Part/Total                     : 1</code></p>
<p><code>Track name                     : End Game</code></p>
<p><code>Track name/Position            : 2</code></p>
<p><code>Track name/Total               : 15</code></p>
<p><code>Performer                      : Taylor Swift</code></p>
<p><code>Composer                       : Taylor Swift, Jack Antonoff, Richard Fairbrass, Fred Fairbrass &amp; Rob Manzoli / Taylor Swift, Ed Sheeran, Future</code></p>
<p><code>Producer                       : 2017 Big Machine Label Group, LLC</code></p>
<p><code>Genre                          : Pop</code></p>
<p><code>Recorded date                  : 2017</code></p>
<p><code>BPM                            : 159</code></p>
<p><code>ISRC                           : USCJY1750004</code></p>
<p><code>Cover                          : Yes</code></p>
<p><code>Cover type                     : Cover (front)</code></p>
<p><code>Cover MIME                     : image/jpeg</code></p>
<p><code>LENGTH                         : 244</code></p>
<p><code>ITUNESADVISORY                 : 0</code></p>
<p><code>Album/Composer                 : Taylor Swift</code></p>
<h1><code>Audio</code></h1>
<p><code>Format                         : FLAC</code></p>
<p><code>Format/Info                    : Free Lossless Audio Codec</code></p>
<p><code>Duration                       : 4mn 4s</code></p>
<p><code>Bit rate mode                  : Variable</code></p>
<p><code>Bit rate                       : 1 060 Kbps</code></p>
<p><code>Channel(s)                     : 2 channels</code></p>
<p><code>Sampling rate                  : 44.1 KHz</code></p>
<p><code>Bit depth                      : 16 bits</code></p>
<p><code>Stream size                    : 31.0 MiB (99%)</code></p>
<p><code>Writing library                : libFLAC 1.2.1 (UTC 2007-09-17)</code></p>
<h2>---</h2>
<hr>
<h1><code>General</code></h1>
<p><code>Complete name                  : 09 - Taylor Swift - Getaway Car.mp3</code></p>
<p><code>Format                         : MPEG Audio</code></p>
<p><code>File size                      : 9.14 MiB</code></p>
<p><code>Duration                       : 3mn 53s</code></p>
<p><code>Overall bit rate mode          : Constant</code></p>
<p><code>Overall bit rate               : 320 Kbps</code></p>
<p><code>Album                          : reputation</code></p>
<p><code>Album/Performer                : Taylor Swift</code></p>
<p><code>Part/Position                  : 1</code></p>
<p><code>Part/Total                     : 1</code></p>
<p><code>Track name                     : Getaway Car</code></p>
<p><code>Track name/Position            : 9</code></p>
<p><code>Track name/Total               : 15</code></p>
<p><code>Performer                      : Taylor Swift</code></p>
<p><code>Performer/Sorted by            : Swift, Taylor</code></p>
<p><code>Composer                       : Taylor Swift, Jack Antonoff, Richard Fairbrass, Fred Fairbrass &amp; Rob Manzoli</code></p>
<p><code>Publisher                      : 2017 Big Machine Label Group, LLC</code></p>
<p><code>Genre                          : Pop</code></p>
<p><code>Recorded date                  : 2017</code></p>
<p><code>Writing library                : LAME3.99.5</code></p>
<p><code>BPM                            : 172</code></p>
<p><code>Cover                          : Yes</code></p>
<p><code>Cover type                     : Cover (front)</code></p>
<p><code>Cover MIME                     : image/jpeg</code></p>
<h1><code>Audio</code></h1>
<p><code>Format                         : MPEG Audio</code></p>
<p><code>Format version                 : Version 1</code></p>
<p><code>Format profile                 : Layer 3</code></p>
<p><code>Mode                           : Joint stereo</code></p>
<p><code>Mode extension                 : MS Stereo</code></p>
<p><code>Duration                       : 3mn 53s</code></p>
<p><code>Bit rate mode                  : Constant</code></p>
<p><code>Bit rate                       : 320 Kbps</code></p>
<p><code>Channel(s)                     : 2 channels</code></p>
<p><code>Sampling rate                  : 44.1 KHz</code></p>
<p><code>Compression mode               : Lossy</code></p>
<p><code>Stream size                    : 8.91 MiB (98%)</code></p>
<p><code>Writing library                : LAME3.99.5</code></p></p>
    <p class="toolbar">
        <a href="https://www.reddit.com/r/megalinks/comments/7rtq34">permalink</a>
    </p>
</div>
<div class="comment" id="t1_dszhqi7">
    <p class="userinfo">
        <a
        class="toggle_hide_button"
        href="javascript:void(0)"
        onclick="toggle_collapse(this.parentElement.parentElement)">[-]
        </a>
        <a href="https://www.reddit.com/u/Lovemesometoasts">Lovemesometoasts</a>
        <span class="score"> | 3 points</span>
        <span class="timestamp"> | Jan 20 2018 22:45:54</span>
    </p>
    <div class="collapsible">
        <p>thank you so much for uploading! you're the best &lt;3</p>
        <p class="toolbar">
            <a href="https://www.reddit.com/r/megalinks/comments/7rtq34/_/dszhqi7">permalink</a>
        </p>
        
    </div>
</div>
</body>

<script>
function toggle_collapse(comment_div)
{
    var button = comment_div.getElementsByClassName("toggle_hide_button")[0];
    var collapsible = comment_div.getElementsByClassName("collapsible")[0];
    if (collapsible.classList.contains("hidden"))
    {
        collapsible.classList.remove("hidden");
        button.innerText = "[-]";
    }
    else
    {
        collapsible.classList.add("hidden");
        button.innerText = "[+]";
    }
}
</script>
</html>
